<svg version="1.1" id="Layer_1" xmlns="http://www.w3.org/2000/svg" xmlns:xlink="http://www.w3.org/1999/xlink" x="0px" y="0px"
	 width="100%" viewBox="0 0 512 512" enable-background="new 0 0 512 512" xml:space="preserve">
<path fill="#FFFFFF" opacity="1.000000" stroke="none" 
	d="
M287.000000,513.000000 
	C191.356552,513.000000 96.213104,513.000000 1.034826,513.000000 
	C1.034826,342.398193 1.034826,171.796371 1.034826,1.097280 
	C171.560135,1.097280 342.120331,1.097280 512.840271,1.097280 
	C512.840271,171.666550 512.840271,342.333252 512.840271,513.000000 
	C437.796356,513.000000 362.648163,513.000000 287.000000,513.000000 
M184.105682,96.999374 
	C173.836029,96.999374 163.566360,96.999374 153.273254,96.999374 
	C153.273254,129.258759 153.273254,160.984085 153.273254,193.142807 
	C163.944092,193.142807 174.348785,193.142807 184.989578,193.142807 
	C184.989578,204.047180 184.989578,214.518433 184.053604,224.998993 
	C163.122009,224.998993 142.190414,224.998993 121.300552,224.998993 
	C121.300552,302.637665 121.300552,379.700623 121.300552,456.999969 
	C122.744926,456.999969 123.889839,456.999939 125.034760,456.999939 
	C210.528259,456.999939 296.021759,457.000641 381.515259,456.993073 
	C382.677765,456.992981 383.840271,456.888916 385.900848,456.983795 
	C388.171478,456.983795 390.442108,456.983795 392.715210,456.983795 
	C392.715210,379.389099 392.715210,302.287048 392.715210,225.166611 
	C389.954681,225.166611 387.478760,225.166611 384.075897,225.016266 
	C363.064117,224.997528 342.052368,224.978775 321.003967,224.028671 
	C321.003967,213.769272 321.003967,203.509857 321.003967,192.830978 
	C331.972626,192.830978 342.374176,192.830978 352.708252,192.830978 
	C352.708252,160.684433 352.708252,128.968597 352.708252,96.848221 
	C344.618896,96.848221 336.818939,96.848221 329.003448,95.934029 
	C329.003448,85.691277 329.003448,75.448517 329.003448,65.308914 
	C280.637878,65.308914 232.962814,65.308914 185.049133,65.308914 
	C185.049133,76.074959 185.049133,86.534317 184.105682,96.999374 
z"/>
<path fill="#1F096C" opacity="1.000000" stroke="none" 
	d="
M321.040588,224.960037 
	C342.052368,224.978775 363.064117,224.997528 384.538483,225.549393 
	C385.001648,302.999481 385.002197,379.916443 385.002777,456.833405 
	C383.840271,456.888916 382.677765,456.992981 381.515259,456.993073 
	C296.021759,457.000641 210.528259,456.999939 125.034760,456.999939 
	C123.889839,456.999939 122.744926,456.999969 121.300552,456.999969 
	C121.300552,379.700623 121.300552,302.637665 121.300552,224.998993 
	C142.190414,224.998993 163.122009,224.998993 184.527100,224.999786 
	C185.000580,225.000580 185.011353,225.011353 185.007263,225.479218 
	C184.973648,236.280365 184.944138,246.613632 184.454193,256.966583 
	C173.751556,256.986267 163.509354,256.986267 153.326431,256.986267 
	C153.326431,313.407318 153.326431,368.957764 153.326431,424.850403 
	C164.098373,424.850403 174.548965,424.850403 185.465363,424.904510 
	C196.266266,424.930969 206.601379,424.903351 217.407410,424.917358 
	C252.231949,424.954224 286.585571,424.949463 321.413269,424.964417 
	C330.706787,424.989319 339.531464,424.818329 348.343140,425.081726 
	C352.164673,425.195984 353.287140,423.883392 353.075317,420.214142 
	C352.797668,415.404449 353.007324,410.566650 353.007324,405.740936 
	C353.007294,357.982910 352.947418,310.224701 353.106873,262.467224 
	C353.121613,258.051788 351.952209,256.729767 347.529022,256.897095 
	C338.722961,257.230316 329.894470,256.971313 321.049561,256.491638 
	C321.007416,245.692703 320.990997,235.359085 320.991028,225.009064 
	C321.007507,224.992676 321.040588,224.960037 321.040588,224.960037 
z"/>
<path fill="#1F096C" opacity="1.000000" stroke="none" 
	d="
M329.019012,96.848221 
	C336.818939,96.848221 344.618896,96.848221 352.708252,96.848221 
	C352.708252,128.968597 352.708252,160.684433 352.708252,192.830978 
	C342.374176,192.830978 331.972626,192.830978 321.003967,192.830978 
	C321.003967,203.509857 321.003967,213.769272 321.022278,224.494354 
	C321.040588,224.960037 321.007507,224.992676 320.524109,225.000626 
	C309.810852,225.008575 299.581024,225.008575 288.813263,225.008575 
	C288.813263,213.921936 288.813263,203.692139 288.813263,193.124298 
	C277.818878,193.124298 267.377686,193.124298 256.475159,193.076797 
	C243.146866,193.029297 230.279907,193.029297 216.924438,193.029297 
	C216.924438,204.139664 216.924438,214.558426 216.958008,224.984406 
	C216.991592,224.991592 216.977188,224.924438 216.511200,224.953278 
	C205.700592,224.991852 195.355972,225.001602 185.011353,225.011353 
	C185.011353,225.011353 185.000580,225.000580 184.995087,224.995148 
	C184.989578,214.518433 184.989578,204.047180 184.989578,193.142807 
	C174.348785,193.142807 163.944092,193.142807 153.273254,193.142807 
	C153.273254,160.984085 153.273254,129.258759 153.273254,96.999374 
	C163.566360,96.999374 173.836029,96.999374 184.547760,96.987610 
	C184.989853,96.975853 184.954254,97.026299 184.971695,97.492996 
	C184.989136,118.837708 184.989136,139.715729 184.989136,160.846878 
	C196.095825,160.846878 206.532806,160.846878 217.437332,160.902130 
	C241.568222,160.948761 265.231567,160.940140 289.372009,160.954758 
	C298.473663,160.985306 307.104492,160.800186 315.719849,161.084549 
	C319.768372,161.218201 321.141235,160.113983 321.095398,155.868134 
	C320.883972,136.299393 321.010193,116.726997 321.457764,97.098648 
	C324.273163,96.977005 326.646088,96.912613 329.019012,96.848221 
z"/>
<path fill="#876827" opacity="1.000000" stroke="none" 
	d="
M329.011230,96.391129 
	C326.646088,96.912613 324.273163,96.977005 320.990906,97.040085 
	C309.708710,97.077019 299.335846,97.115273 288.500244,97.093185 
	C264.369537,97.074097 240.701645,97.115341 216.566345,97.098022 
	C205.717392,97.035072 195.335831,97.030685 184.954254,97.026299 
	C184.954254,97.026299 184.989853,96.975853 185.019501,96.984772 
	C185.049133,86.534317 185.049133,76.074959 185.049133,65.308914 
	C232.962814,65.308914 280.637878,65.308914 329.003448,65.308914 
	C329.003448,75.448517 329.003448,85.691277 329.011230,96.391129 
z"/>
<path fill="#1D0B5D" opacity="1.000000" stroke="none" 
	d="
M385.451813,456.908600 
	C385.002197,379.916443 385.001648,302.999481 385.001953,225.624573 
	C387.478760,225.166611 389.954681,225.166611 392.715210,225.166611 
	C392.715210,302.287048 392.715210,379.389099 392.715210,456.983795 
	C390.442108,456.983795 388.171478,456.983795 385.451813,456.908600 
z"/>
<path fill="#4423BB" opacity="1.000000" stroke="none" 
	d="
M256.936462,193.124298 
	C267.377686,193.124298 277.818878,193.124298 288.813263,193.124298 
	C288.813263,203.692139 288.813263,213.921936 288.813263,225.008575 
	C299.581024,225.008575 309.810852,225.008575 320.507629,225.017014 
	C320.990997,235.359085 321.007416,245.692703 321.022095,256.964111 
	C320.993317,313.582825 320.966248,369.263794 320.939178,424.944733 
	C286.585571,424.949463 252.231949,424.954224 217.430145,424.460419 
	C216.980362,357.616058 216.978775,291.270264 216.977188,224.924438 
	C216.977188,224.924438 216.991592,224.991592 217.433624,224.992279 
	C229.302948,224.995255 240.732193,224.879898 252.156387,225.069962 
	C255.682709,225.128632 257.209381,224.370728 257.084808,220.446518 
	C256.795929,211.346710 256.957489,202.232605 256.936462,193.124298 
z"/>
<path fill="#5B36E2" opacity="1.000000" stroke="none" 
	d="
M216.511200,224.953278 
	C216.978775,291.270264 216.980362,357.616058 216.959229,424.418823 
	C206.601379,424.903351 196.266266,424.930969 185.465530,424.448914 
	C184.971466,368.275085 184.943039,312.610992 184.914612,256.946899 
	C184.944138,246.613632 184.973648,236.280365 185.007263,225.479218 
	C195.355972,225.001602 205.700592,224.991852 216.511200,224.953278 
z"/>
<path fill="#8750AB" opacity="1.000000" stroke="none" 
	d="
M184.454193,256.966583 
	C184.943039,312.610992 184.971466,368.275085 184.999725,424.394775 
	C174.548965,424.850403 164.098373,424.850403 153.326431,424.850403 
	C153.326431,368.957764 153.326431,313.407318 153.326431,256.986267 
	C163.509354,256.986267 173.751556,256.986267 184.454193,256.966583 
z"/>
<path fill="#381A83" opacity="1.000000" stroke="none" 
	d="
M321.413269,424.964417 
	C320.966248,369.263794 320.993317,313.582825 321.047791,257.429413 
	C329.894470,256.971313 338.722961,257.230316 347.529022,256.897095 
	C351.952209,256.729767 353.121613,258.051788 353.106873,262.467224 
	C352.947418,310.224701 353.007294,357.982910 353.007324,405.740936 
	C353.007324,410.566650 352.797668,415.404449 353.075317,420.214142 
	C353.287140,423.883392 352.164673,425.195984 348.343140,425.081726 
	C339.531464,424.818329 330.706787,424.989319 321.413269,424.964417 
z"/>
<path fill="#5B36E2" opacity="1.000000" stroke="none" 
	d="
M217.033752,97.156593 
	C240.701645,97.115341 264.369537,97.074097 288.512573,97.549561 
	C288.956757,119.021362 288.925812,139.976440 288.894897,160.931519 
	C265.231567,160.940140 241.568222,160.948761 217.447495,160.446014 
	C217.004639,139.008636 217.019196,118.082611 217.033752,97.156593 
z"/>
<path fill="#A463BC" opacity="1.000000" stroke="none" 
	d="
M216.566360,97.098022 
	C217.019196,118.082611 217.004639,139.008636 216.979935,160.390762 
	C206.532806,160.846878 196.095825,160.846878 184.989136,160.846878 
	C184.989136,139.715729 184.989136,118.837708 184.971695,97.492996 
	C195.335831,97.030685 205.717392,97.035072 216.566360,97.098022 
z"/>
<path fill="#381A83" opacity="1.000000" stroke="none" 
	d="
M289.372009,160.954758 
	C288.925812,139.976440 288.956757,119.021362 288.975342,97.609909 
	C299.335846,97.115273 309.708710,97.077019 320.548431,97.097336 
	C321.010193,116.726997 320.883972,136.299393 321.095398,155.868134 
	C321.141235,160.113983 319.768372,161.218201 315.719849,161.084549 
	C307.104492,160.800186 298.473663,160.985306 289.372009,160.954758 
z"/>
<path fill="#5B36E2" opacity="1.000000" stroke="none" 
	d="
M256.475159,193.076797 
	C256.957489,202.232605 256.795929,211.346710 257.084808,220.446518 
	C257.209381,224.370728 255.682709,225.128632 252.156387,225.069962 
	C240.732193,224.879898 229.302948,224.995255 217.400040,224.985092 
	C216.924438,214.558426 216.924438,204.139664 216.924438,193.029297 
	C230.279907,193.029297 243.146866,193.029297 256.475159,193.076797 
z"/>
</svg>